grf
version=1
nRows=12
nColumns=37
inDegrees=no
endheader
time	ground_force_1_vx	ground_force_1_vy	ground_force_1_vz	ground_force_1_px	ground_force_1_py	ground_force_1_pz	ground_moment_1_mx	ground_moment_1_my	ground_moment_1_mz	ground_force_2_vx	ground_force_2_vy	ground_force_2_vz	ground_force_2_px	ground_force_2_py	ground_force_2_pz	ground_moment_2_mx	ground_moment_2_my	ground_moment_2_mz	ground_force_3_vx	ground_force_3_vy	ground_force_3_vz	ground_force_3_px	ground_force_3_py	ground_force_3_pz	ground_moment_3_mx	ground_moment_3_my	ground_moment_3_mz	ground_force_4_vx	ground_force_4_vy	ground_force_4_vz	ground_force_4_px	ground_force_4_py	ground_force_4_pz	ground_moment_4_mx	ground_moment_4_my	ground_moment_4_mz
      3.56000000	      0.00000000	     -0.00000000	      0.00000000	      0.00000000	      0.00000000	      0.00000000	      0.00000000	      0.00000000	      0.00000000	     -1.65920281	     61.96323013	   -521.71655273	   -284.84030471	  -1212.60227726	      0.00000000	      0.00000000	      0.00000000	   8783.06060094	      6.93844138	    -58.79069198	   -527.64288330	   -320.58048990	   -589.89864134	      0.00000000	      0.00000000	     -0.00000000	  -9108.69447207	      0.00000000	     -0.00000000	      0.00000000	      0.00000000	      0.00000000	      0.00000000	      0.00000000	      0.00000000	      0.00000000
      3.57000000	      0.00000000	     -0.00000000	      0.00000000	      0.00000000	      0.00000000	      0.00000000	      0.00000000	      0.00000000	      0.00000000	     -0.85617512	     62.12348175	   -521.78735352	   -285.56502612	  -1211.77658813	      0.00000000	      0.00000000	      0.00000000	   8854.10520595	      7.66123017	    -59.03085776	   -531.20812988	   -320.74781659	   -590.08131801	      0.00000000	      0.00000000	     -0.00000000	  -8903.65487205	      0.00000000	     -0.00000000	      0.00000000	      0.00000000	      0.00000000	      0.00000000	      0.00000000	      0.00000000	      0.00000000
      3.58000000	      0.00000000	     -0.00000000	      0.00000000	      0.00000000	      0.00000000	      0.00000000	      0.00000000	      0.00000000	      0.00000000	     -0.26763153	     62.21197128	   -525.53588867	   -286.15584817	  -1211.55128438	      0.00000000	      0.00000000	      0.00000000	   8637.86515875	      8.80110229	    -58.54855805	   -534.90026855	   -321.58862533	   -591.25801866	      0.00000000	      0.00000000	     -0.00000000	  -8793.73259228	      0.00000000	     -0.00000000	      0.00000000	      0.00000000	      0.00000000	      0.00000000	      0.00000000	      0.00000000	      0.00000000
      3.59000000	      0.00000000	     -0.00000000	      0.00000000	      0.00000000	      0.00000000	      0.00000000	      0.00000000	      0.00000000	      0.00000000	      0.47929239	     62.12214661	   -527.58160400	   -286.97200950	  -1211.53942105	      0.00000000	      0.00000000	      0.00000000	   8642.25101030	      9.99140990	    -58.59432308	   -539.56878662	   -322.59384295	   -590.88453457	      0.00000000	      0.00000000	     -0.00000000	  -8754.86251248	      0.00000000	     -0.00000000	      0.00000000	      0.00000000	      0.00000000	      0.00000000	      0.00000000	      0.00000000	      0.00000000
      3.60000000	      0.00000000	     -0.00000000	      0.00000000	      0.00000000	      0.00000000	      0.00000000	      0.00000000	      0.00000000	      0.00000000	      1.93022943	     62.81489563	   -530.53576660	   -287.69982253	  -1210.07421030	      0.00000000	      0.00000000	      0.00000000	   8580.66599224	     10.87816011	    -58.73392582	   -544.40014648	   -323.02644582	   -591.38307668	      0.00000000	      0.00000000	     -0.00000000	  -8475.68155968	      0.00000000	     -0.00000000	      0.00000000	      0.00000000	      0.00000000	      0.00000000	      0.00000000	      0.00000000	      0.00000000
      3.61000000	      0.00000000	     -0.00000000	      0.00000000	      0.00000000	      0.00000000	      0.00000000	      0.00000000	      0.00000000	      0.00000000	      3.46196508	     64.40682220	   -534.99938965	   -288.17787878	  -1210.19063959	      0.00000000	      0.00000000	      0.00000000	   8450.96198604	     11.79852925	    -58.87706860	   -548.09582520	   -323.90003026	   -592.05982551	      0.00000000	      0.00000000	     -0.00000000	  -8498.90428175	      0.00000000	     -0.00000000	      0.00000000	      0.00000000	      0.00000000	      0.00000000	      0.00000000	      0.00000000	      0.00000000
      3.62000000	      0.00000000	     -0.00000000	      0.00000000	      0.00000000	      0.00000000	      0.00000000	      0.00000000	      0.00000000	      0.00000000	      4.58396769	     65.38751984	   -541.79241943	   -289.19306361	  -1209.97930172	      0.00000000	      0.00000000	      0.00000000	   8339.22426760	     13.55451730	    -59.59899639	   -553.62048340	   -324.24087719	   -592.39068031	      0.00000000	      0.00000000	     -0.00000000	  -8239.07455663	      0.00000000	     -0.00000000	      0.00000000	      0.00000000	      0.00000000	      0.00000000	      0.00000000	      0.00000000	      0.00000000
      3.63000000	      0.00000000	     -0.00000000	      0.00000000	      0.00000000	      0.00000000	      0.00000000	      0.00000000	      0.00000000	      0.00000000	      5.80300522	     66.12211609	   -546.72253418	   -290.08542248	  -1209.26071242	      0.00000000	      0.00000000	      0.00000000	   8395.71832325	     14.70789481	    -59.90185294	   -560.87304688	   -324.45184881	   -592.14247245	      0.00000000	      0.00000000	     -0.00000000	  -8139.86127610	      0.00000000	     -0.00000000	      0.00000000	      0.00000000	      0.00000000	      0.00000000	      0.00000000	      0.00000000	      0.00000000
      3.64000000	      0.00000000	     -0.00000000	      0.00000000	      0.00000000	      0.00000000	      0.00000000	      0.00000000	      0.00000000	      0.00000000	      7.79995728	     67.25485229	   -555.19885254	   -290.77074238	  -1208.69290766	      0.00000000	      0.00000000	      0.00000000	   8214.29983121	     16.03867769	    -60.07777164	   -564.57373047	   -324.90489705	   -593.45403835	      0.00000000	      0.00000000	     -0.00000000	  -7959.49155535	      0.00000000	     -0.00000000	      0.00000000	      0.00000000	      0.00000000	      0.00000000	      0.00000000	      0.00000000	      0.00000000
      3.65000000	      0.00000000	     -0.00000000	      0.00000000	      0.00000000	      0.00000000	      0.00000000	      0.00000000	      0.00000000	      0.00000000	      9.79085541	     69.66098022	   -565.70593262	   -291.36458332	  -1208.18442652	      0.00000000	      0.00000000	      0.00000000	   8291.01775432	     18.20354690	    -61.13686911	   -570.51568604	   -326.12382180	   -593.31927962	      0.00000000	     -0.00000000	     -0.00000000	  -8005.46172104	      0.00000000	     -0.00000000	      0.00000000	      0.00000000	      0.00000000	      0.00000000	      0.00000000	      0.00000000	      0.00000000
      3.66000000	      0.00000000	     -0.00000000	      0.00000000	      0.00000000	      0.00000000	      0.00000000	      0.00000000	      0.00000000	      0.00000000	     11.28410530	     71.37686157	   -574.95233154	   -291.35693718	  -1208.96177099	      0.00000000	      0.00000000	      0.00000000	   8258.23365774	     19.48065401	    -62.67312792	   -579.45172119	   -325.95631617	   -593.61334282	      0.00000000	      0.00000000	     -0.00000000	  -7873.55718224	      0.00000000	     -0.00000000	      0.00000000	      0.00000000	      0.00000000	      0.00000000	      0.00000000	      0.00000000	      0.00000000
      3.67000000	      0.00000000	     -0.00000000	      0.00000000	      0.00000000	      0.00000000	      0.00000000	      0.00000000	      0.00000000	      0.00000000	     14.08570671	     72.01046753	   -583.29559326	   -292.35010524	  -1207.20981770	      0.00000000	      0.00000000	      0.00000000	   8472.77165001	     22.40867059	    -63.60911374	   -588.66967773	   -326.20093650	   -593.61586223	      0.00000000	      0.00000000	     -0.00000000	  -7827.69581175	      0.00000000	     -0.00000000	      0.00000000	      0.00000000	      0.00000000	      0.00000000	      0.00000000	      0.00000000	      0.00000000
